# xmcd
# 
# Track frame offsets:
#     150
#     3415
#     16575
#     29824
#     45921
#     55873
#     87108
#     97459
#     126558
#     138570
#     160315
#     180797
#     199952
#     245553
# 
# Disc length: 3514
# 
# Revision: 2
# Processed by: cddbd v1.5.2PL0 Copyright (c) Steve Scherf et al.
# Submitted via: fre:ac v1.0.31
# 
DISCID=bb0db80e
DTITLE=Otis Redding - Live AtTheWhiskey A Go Go Disc 6
DYEAR=2016
DGENRE=R&B
TTITLE0=Introduction (Sunday, April 10, 1966 - Set Two)
TTITLE1=Destiny (Sunday, April 10, 1966 - Set Two)
TTITLE2=Security (Sunday, April 10, 1966 - Set Two)
TTITLE3=Good to Me (Sunday, April 10, 1966 - Set Two)
TTITLE4=Respect (Sunday, April 10, 1966 - Set Two)
TTITLE5=Chained and Bound (Sunday, April 10, 1966 - Set Two)
TTITLE6=Mr. Pitiful (Sunday, April 10, 1966 - Set Two)
TTITLE7=(I Can't Get No) Satisfaction (Sunday, April 10, 1966 - Set Two)
TTITLE8=Ole Man Trouble (Sunday, April 10, 1966 - Set Two)
TTITLE9=I Can't Turn You Loose (Sunday, April 10, 1966 - Set Two)
TTITLE10=A Hard Day's Night (Sunday, April 10, 1966 - Set Two)
TTITLE11=These Arms of Mine (Sunday, April 10, 1966 - Set Two)
TTITLE12=Papa's Got a Brand New Bag (Sunday, April 10, 1966 - Set Two)
TTITLE13=(I Can't Get No) Satisfaction (Redux) (Sunday, April 10, 1966 - Set Two)
EXTD=
EXTT0=
EXTT1=
EXTT2=
EXTT3=
EXTT4=
EXTT5=
EXTT6=
EXTT7=
EXTT8=
EXTT9=
EXTT10=
EXTT11=
EXTT12=
EXTT13=
PLAYORDER=
